<svg width="480" height="126" viewBox="0 0 480 126" fill="none" xmlns="http://www.w3.org/2000/svg">
<path d="M39.3263 35.4702H39.9978L39.8053 36.1136L35.0454 52.0222L34.9387 52.3789H34.5664H22.1836H21.5121L21.7046 51.7356L26.4644 35.8269L26.5711 35.4702H26.9434H39.3263Z" fill="#F245A1" stroke="black"/>
<path d="M45.3338 53.6992H46.0053L45.8128 54.3425L42.1076 66.7254L42.0009 67.082H41.6286H1H0.5V66.582V54.1992V53.6992H1H45.3338Z" fill="#F245A1" stroke="black"/>
<path d="M61.7821 54.0559L61.8888 53.6992H62.2611H70.9048H71.4048V54.1992V66.582V67.082H70.9048H58.5566H57.8852L58.0776 66.4387L61.7821 54.0559Z" fill="#B0FF00" stroke="black"/>
<path d="M54.7349 73.3699L54.6282 73.7266H54.2559H41.873H41.2016L41.394 73.0832L52.5428 35.8203L52.6495 35.4636H53.0218H65.4039H66.0754L65.8829 36.1069L54.7349 73.3699Z" fill="#B0FF00" stroke="black"/>
<path d="M32.0332 106.5H31.3617L31.5542 105.857L36.3141 89.948L36.4208 89.5913H36.7931H49.1759H49.8474L49.655 90.2347L44.8951 106.143L44.7883 106.5H44.416H32.0332Z" fill="#0057FF" stroke="black"/>
<path d="M12.8454 75.0273H13.5169L13.3245 75.6706L9.6198 88.0535L9.51308 88.4102H9.14077H1H0.5V87.9102V75.5273V75.0273H1H12.8454Z" fill="#FFFC00" stroke="black"/>
<path d="M26.1641 88.4102H25.4926L25.685 87.7669L29.3895 75.384L29.4962 75.0273H29.8685H70.9997H71.4997V75.5273V87.9102V88.4102H70.9997H26.1641Z" fill="#0057FF" stroke="black"/>
<path d="M16.7265 68.5937L16.8332 68.2371H17.2055H29.588H30.2595L30.067 68.8804L18.9185 106.143L18.8118 106.5H18.4395H6.05664H5.38514L5.57762 105.857L16.7265 68.5937Z" fill="#FFFC00" stroke="black"/>
<path d="M103.3 100L86.5 51.4H101.5L111.9 86.7L107.5 86.8L119 51.4H131.4L143 86.8L138.5 86.7L149 51.4H164L147.2 100H134.7L123.4 66.4H127.2L115.7 100H103.3ZM189.939 101.1C184.672 101.1 179.972 100.033 175.839 97.9C171.772 95.7 168.572 92.6667 166.239 88.8C163.906 84.9333 162.739 80.5667 162.739 75.7C162.739 70.8333 163.872 66.5 166.139 62.7C168.472 58.8333 171.606 55.8 175.539 53.6C179.472 51.4 183.906 50.3 188.839 50.3C193.639 50.3 197.872 51.3333 201.539 53.4C205.206 55.4667 208.072 58.3333 210.139 62C212.272 65.6667 213.339 69.8667 213.339 74.6C213.339 75.4667 213.272 76.4 213.139 77.4C213.072 78.3333 212.906 79.4333 212.639 80.7L170.739 80.8V70.3L206.139 70.2L199.539 74.6C199.472 71.8 199.039 69.5 198.239 67.7C197.439 65.8333 196.239 64.4333 194.639 63.5C193.106 62.5 191.206 62 188.939 62C186.539 62 184.439 62.5667 182.639 63.7C180.906 64.7667 179.539 66.3 178.539 68.3C177.606 70.3 177.139 72.7333 177.139 75.6C177.139 78.4667 177.639 80.9333 178.639 83C179.706 85 181.172 86.5667 183.039 87.7C184.972 88.7667 187.239 89.3 189.839 89.3C192.239 89.3 194.406 88.9 196.339 88.1C198.272 87.2333 199.972 85.9667 201.439 84.3L209.839 92.7C207.439 95.5 204.539 97.6 201.139 99C197.739 100.4 194.006 101.1 189.939 101.1ZM245.724 101C242.458 101 239.458 100.333 236.724 99C233.991 97.6 231.758 95.7667 230.024 93.5C228.291 91.1667 227.291 88.5667 227.024 85.7V65.2C227.291 62.3333 228.291 59.8 230.024 57.6C231.758 55.3333 233.991 53.5667 236.724 52.3C239.458 51.0333 242.458 50.4 245.724 50.4C250.324 50.4 254.391 51.5 257.924 53.7C261.524 55.9 264.324 58.9 266.324 62.7C268.391 66.5 269.424 70.8333 269.424 75.7C269.424 80.5667 268.391 84.9 266.324 88.7C264.324 92.5 261.524 95.5 257.924 97.7C254.391 99.9 250.324 101 245.724 101ZM243.024 87.2C245.158 87.2 247.024 86.7 248.624 85.7C250.291 84.7 251.591 83.3333 252.524 81.6C253.458 79.8667 253.924 77.9 253.924 75.7C253.924 73.4333 253.458 71.4333 252.524 69.7C251.591 67.9667 250.291 66.6333 248.624 65.7C247.024 64.7 245.158 64.2 243.024 64.2C240.891 64.2 238.991 64.7 237.324 65.7C235.658 66.6333 234.358 67.9667 233.424 69.7C232.558 71.4333 232.124 73.4333 232.124 75.7C232.124 77.9667 232.591 79.9667 233.524 81.7C234.458 83.4333 235.724 84.8 237.324 85.8C238.991 86.7333 240.891 87.2 243.024 87.2ZM217.724 100V27.4H233.024V63.3L230.524 75.1L232.824 86.9V100H217.724ZM306.297 100V72.3C306.297 69.7667 305.497 67.7333 303.897 66.2C302.364 64.6 300.397 63.8 297.997 63.8C296.33 63.8 294.864 64.1667 293.597 64.9C292.33 65.5667 291.33 66.5667 290.597 67.9C289.864 69.1667 289.497 70.6333 289.497 72.3L283.597 69.4C283.597 65.6 284.397 62.2667 285.997 59.4C287.597 56.5333 289.83 54.3333 292.697 52.8C295.564 51.2 298.864 50.4 302.597 50.4C306.397 50.4 309.73 51.2 312.597 52.8C315.464 54.3333 317.664 56.5 319.197 59.3C320.797 62.0333 321.597 65.2333 321.597 68.9V100H306.297ZM274.197 100V27.4H289.497V100H274.197ZM348.723 101C344.257 101 340.257 99.9 336.723 97.7C333.257 95.5 330.49 92.5 328.423 88.7C326.423 84.9 325.423 80.5667 325.423 75.7C325.423 70.8333 326.423 66.5 328.423 62.7C330.49 58.9 333.257 55.9 336.723 53.7C340.257 51.5 344.257 50.4 348.723 50.4C351.99 50.4 354.923 51.0333 357.523 52.3C360.19 53.5667 362.357 55.3333 364.023 57.6C365.69 59.8 366.623 62.3333 366.823 65.2V86.2C366.623 89.0667 365.69 91.6333 364.023 93.9C362.423 96.1 360.29 97.8333 357.623 99.1C354.957 100.367 351.99 101 348.723 101ZM351.823 87.2C355.09 87.2 357.723 86.1333 359.723 84C361.723 81.8 362.723 79.0333 362.723 75.7C362.723 73.4333 362.257 71.4333 361.323 69.7C360.457 67.9667 359.19 66.6333 357.523 65.7C355.923 64.7 354.057 64.2 351.923 64.2C349.79 64.2 347.89 64.7 346.223 65.7C344.623 66.6333 343.323 67.9667 342.323 69.7C341.39 71.4333 340.923 73.4333 340.923 75.7C340.923 77.9 341.39 79.8667 342.323 81.6C343.257 83.3333 344.557 84.7 346.223 85.7C347.89 86.7 349.757 87.2 351.823 87.2ZM362.123 100V86.9L364.423 75.1L362.123 63.3V51.4H377.123V100H362.123ZM402.596 101.2C399.729 101.2 396.896 100.833 394.096 100.1C391.363 99.3667 388.796 98.3333 386.396 97C384.063 95.6 382.063 94 380.396 92.2L389.096 83.4C390.696 85.1333 392.596 86.5 394.796 87.5C396.996 88.4333 399.396 88.9 401.996 88.9C403.796 88.9 405.163 88.6333 406.096 88.1C407.096 87.5667 407.596 86.8333 407.596 85.9C407.596 84.7 406.996 83.8 405.796 83.2C404.663 82.5333 403.196 81.9667 401.396 81.5C399.596 80.9667 397.696 80.4 395.696 79.8C393.696 79.2 391.796 78.3667 389.996 77.3C388.196 76.2333 386.729 74.7667 385.596 72.9C384.463 70.9667 383.896 68.5333 383.896 65.6C383.896 62.4667 384.696 59.7667 386.296 57.5C387.896 55.1667 390.163 53.3333 393.096 52C396.029 50.6667 399.463 50 403.396 50C407.529 50 411.329 50.7333 414.796 52.2C418.329 53.6 421.196 55.7 423.396 58.5L414.696 67.3C413.163 65.5 411.429 64.2333 409.496 63.5C407.629 62.7667 405.796 62.4 403.996 62.4C402.263 62.4 400.963 62.6667 400.096 63.2C399.229 63.6667 398.796 64.3667 398.796 65.3C398.796 66.3 399.363 67.1 400.496 67.7C401.629 68.3 403.096 68.8333 404.896 69.3C406.696 69.7667 408.596 70.3333 410.596 71C412.596 71.6667 414.496 72.5667 416.296 73.7C418.096 74.8333 419.563 76.3667 420.696 78.3C421.829 80.1667 422.396 82.6333 422.396 85.7C422.396 90.4333 420.596 94.2 416.996 97C413.463 99.8 408.663 101.2 402.596 101.2ZM459.797 100V72.3C459.797 69.7667 458.997 67.7333 457.397 66.2C455.864 64.6 453.897 63.8 451.497 63.8C449.83 63.8 448.364 64.1667 447.097 64.9C445.83 65.5667 444.83 66.5667 444.097 67.9C443.364 69.1667 442.997 70.6333 442.997 72.3L437.097 69.4C437.097 65.6 437.897 62.2667 439.497 59.4C441.097 56.5333 443.33 54.3333 446.197 52.8C449.064 51.2 452.364 50.4 456.097 50.4C459.897 50.4 463.23 51.2 466.097 52.8C468.964 54.3333 471.164 56.5 472.697 59.3C474.297 62.0333 475.097 65.2333 475.097 68.9V100H459.797ZM427.697 100V27.4H442.997V100H427.697Z" fill="#1A1A1A"/>
</svg>
