<svg width="202" height="203" viewBox="0 0 202 203" fill="none" xmlns="http://www.w3.org/2000/svg">
<path d="M110.524 0.557205H111.195L111.003 1.20053L97.4014 46.6589L97.2947 47.0156H96.9224H61.5391H60.8676L61.06 46.3723L74.6611 0.913883L74.7678 0.557205H75.1401H110.524Z" fill="#F245A1" stroke="black"/>
<path d="M127.682 52.7532H128.354L128.161 53.3965L117.574 88.78L117.467 89.1367H117.095H1H0.5V88.6367V53.2532V52.7532H1H127.682Z" fill="#F245A1" stroke="black"/>
<path d="M175.557 53.1099L175.664 52.7532H176.037H200.736H201.236V53.2532V88.6367V89.1367H200.736H165.451H164.78L164.972 88.4934L175.557 53.1099Z" fill="#B0FF00" stroke="black"/>
<path d="M153.654 107.62L153.547 107.977H153.175H117.791H117.12L117.312 107.333L149.169 0.855751L149.276 0.499069H149.648H185.03H185.701L185.509 1.14238L153.654 107.62Z" fill="#B0FF00" stroke="black"/>
<path d="M89.6699 201.684H88.9984L89.1909 201.04L102.792 155.582L102.899 155.225H103.271H138.655H139.326L139.134 155.868L125.532 201.327L125.426 201.684H125.053H89.6699Z" fill="#0057FF" stroke="black"/>
<path d="M34.8479 113.691H35.5194L35.327 114.334L24.741 149.718L24.6343 150.074H24.262H1H0.5V149.574V114.191V113.691H1H34.8479Z" fill="#FFFC00" stroke="black"/>
<path d="M72.8828 150.074H72.2113L72.4038 149.431L82.9891 114.047L83.0958 113.691H83.4681H200.999H201.499V114.191V149.574V150.074H200.999H72.8828Z" fill="#0057FF" stroke="black"/>
<path d="M46.8298 94.5628L46.9365 94.2061H47.3088H82.6913H83.3628L83.1703 94.8494L51.3137 201.327L51.207 201.684H50.8347H15.4512H14.7797L14.9722 201.04L46.8298 94.5628Z" fill="#FFFC00" stroke="black"/>
</svg>
